<svg width="24" height="24" viewBox="0 0 24 24" fill="none" xmlns="http://www.w3.org/2000/svg">
<circle cx="12" cy="10" r="3" stroke="#6e9c92" stroke-width="2" stroke-linecap="round"/>
<path d="M21 12C21 16.9706 16.9706 21 12 21C7.02944 21 3 16.9706 3 12C3 7.02944 7.02944 3 12 3C16.9706 3 21 7.02944 21 12Z" stroke="#6e9c92" stroke-width="2"/>
<path d="M18.4811 18.9549C18.7095 18.7902 19.1001 18.6085 18.9768 18.3553C18.5219 17.4211 17.6455 16.5984 16.4609 15.9988C15.1812 15.3511 13.6131 15 12 15C10.3869 15 8.81884 15.3511 7.53906 15.9988C6.35447 16.5984 5.47814 17.4211 5.02323 18.3553C4.98292 18.438 4.99691 18.5272 5.05098 18.5986C5.11728 18.6861 5.22108 18.7376 5.30307 18.8106C8.52798 21.6809 14.6342 21.729 18.4811 18.9549Z" fill="#6e9c92"/>
</svg>
