<svg width="32" height="32" viewBox="0 0 32 32" fill="none" xmlns="http://www.w3.org/2000/svg">
<path d="M5.33398 5.33301H7.77243C8.52238 5.33301 8.89736 5.33301 9.16862 5.5448C9.43988 5.7566 9.53083 6.12038 9.71272 6.84794L10.0206 8.07929C10.2765 9.10315 10.4045 9.61508 10.7175 9.97625C10.8873 10.1721 11.0935 10.3331 11.3246 10.4503C11.7509 10.6663 12.2786 10.6663 13.334 10.6663V10.6663" stroke="white" stroke-width="2" stroke-linecap="round"/>
<path d="M24 22.667H10.0679C9.45671 22.667 9.15112 22.667 8.93982 22.5612C8.64666 22.4145 8.44405 22.1334 8.39754 21.8089C8.36402 21.5749 8.46065 21.285 8.65392 20.7052V20.7052C8.86804 20.0629 8.97511 19.7417 9.15649 19.4919C9.40793 19.1456 9.76379 18.8891 10.1718 18.7601C10.4661 18.667 10.8047 18.667 11.4818 18.667H18.6667" stroke="white" stroke-width="2" stroke-linecap="round" stroke-linejoin="round"/>
<path d="M20.1952 18.667H14.0558C12.4375 18.667 11.6283 18.667 11.0688 18.193C10.5093 17.7191 10.3763 16.9209 10.1103 15.3246L9.91618 14.1602C9.64593 12.5386 9.5108 11.7279 9.96015 11.1974C10.4095 10.667 11.2315 10.667 12.8754 10.667H23.4312C24.8816 10.667 25.6068 10.667 25.8999 11.1413C26.193 11.6155 25.8687 12.2642 25.2201 13.5614L25.2201 13.5614L23.7729 16.4558C23.235 17.5317 22.966 18.0696 22.4827 18.3683C21.9994 18.667 21.398 18.667 20.1952 18.667Z" stroke="white" stroke-width="2" stroke-linecap="round"/>
<circle cx="22.6673" cy="26.6663" r="1.33333" fill="white"/>
<circle cx="11.9993" cy="26.6663" r="1.33333" fill="white"/>
</svg>
