<svg width="33" height="32" viewBox="0 0 33 32" fill="none" xmlns="http://www.w3.org/2000/svg">
<path d="M0.5 16C0.5 7.16344 7.66344 0 16.5 0C25.3366 0 32.5 7.16344 32.5 16C32.5 24.8366 25.3366 32 16.5 32C7.66344 32 0.5 24.8366 0.5 16Z" fill="white" fill-opacity="0.25"/>
<ellipse cx="16.4939" cy="12.4441" rx="7.11111" ry="7.11111" fill="white"/>
<path fill-rule="evenodd" clip-rule="evenodd" d="M27.6374 27.2373C27.6941 27.3346 27.6763 27.4576 27.5952 27.5355C24.7194 30.3003 20.8121 32 16.5078 32C12.1978 32 8.28589 30.2959 5.40902 27.5247C5.32796 27.4466 5.31033 27.3235 5.36715 27.2264C7.41068 23.7318 11.6281 21.333 16.4991 21.333C21.3752 21.333 25.5963 23.7368 27.6374 27.2373Z" fill="white" fill-opacity="0.25"/>
</svg>
