<svg width="18" height="18" viewBox="0 0 18 18" fill="none" xmlns="http://www.w3.org/2000/svg">
<path d="M7.5 11.25L7.5 9" stroke="black" stroke-width="1.5" stroke-linecap="round"/>
<path d="M10.5 11.25L10.5 9" stroke="black" stroke-width="1.5" stroke-linecap="round"/>
<path d="M2.25 5.25H15.75V5.25C15.0511 5.25 14.7016 5.25 14.426 5.36418C14.0584 5.51642 13.7664 5.80843 13.6142 6.17597C13.5 6.45163 13.5 6.80109 13.5 7.5V12C13.5 13.4142 13.5 14.1213 13.0607 14.5607C12.6213 15 11.9142 15 10.5 15H7.5C6.08579 15 5.37868 15 4.93934 14.5607C4.5 14.1213 4.5 13.4142 4.5 12V7.5C4.5 6.80109 4.5 6.45163 4.38582 6.17597C4.23358 5.80843 3.94157 5.51642 3.57403 5.36418C3.29837 5.25 2.94891 5.25 2.25 5.25V5.25Z" stroke="black" stroke-width="1.5" stroke-linecap="round"/>
<path d="M7.55111 2.52794C7.63657 2.44821 7.82489 2.37775 8.08686 2.32749C8.34882 2.27724 8.6698 2.25 9 2.25C9.3302 2.25 9.65118 2.27724 9.91314 2.32749C10.1751 2.37775 10.3634 2.44821 10.4489 2.52794" stroke="black" stroke-width="1.5" stroke-linecap="round"/>
</svg>
