<svg width="32" height="32" viewBox="0 0 32 32" fill="none" xmlns="http://www.w3.org/2000/svg">
<path d="M28 10.3334H4C3.45333 10.3334 3 9.88004 3 9.33337C3 8.78671 3.45333 8.33337 4 8.33337H28C28.5467 8.33337 29 8.78671 29 9.33337C29 9.88004 28.5467 10.3334 28 10.3334Z" fill="white"/>
<path d="M28 17H4C3.45333 17 3 16.5467 3 16C3 15.4533 3.45333 15 4 15H28C28.5467 15 29 15.4533 29 16C29 16.5467 28.5467 17 28 17Z" fill="white"/>
<path d="M28 23.6666H4C3.45333 23.6666 3 23.2133 3 22.6666C3 22.12 3.45333 21.6666 4 21.6666H28C28.5467 21.6666 29 22.12 29 22.6666C29 23.2133 28.5467 23.6666 28 23.6666Z" fill="white"/>
</svg>
