<svg width="24" height="24" viewBox="0 0 24 24" fill="none" xmlns="http://www.w3.org/2000/svg">
<path fill-rule="evenodd" clip-rule="evenodd" d="M15.9202 12.7988C15.9725 12.5407 16 12.2736 16 12C16 9.79086 14.2091 8 12 8C11.7264 8 11.4593 8.02746 11.2012 8.07977L15.9202 12.7988ZM8.66676 9.78799C8.24547 10.4216 8 11.1821 8 12C8 14.2091 9.79086 16 12 16C12.8179 16 13.5784 15.7545 14.212 15.3332L12.7381 13.8594C12.5098 13.9501 12.2607 14 12 14C10.8954 14 10 13.1046 10 12C10 11.7393 10.0499 11.4902 10.1406 11.2619L8.66676 9.78799Z" fill="#A6A6B0"/>
<path fill-rule="evenodd" clip-rule="evenodd" d="M16.516 17.6405L15.0467 16.1712C14.0745 16.6805 13.0446 17 11.9968 17C10.471 17 8.98299 16.3224 7.65597 15.3677C6.33685 14.4186 5.26091 13.2558 4.58069 12.43C4.48092 12.3088 4.40641 12.2182 4.34468 12.1385C4.29581 12.0754 4.26469 12.0315 4.24438 12C4.26469 11.9685 4.29581 11.9246 4.34468 11.8615C4.40641 11.7818 4.48092 11.6912 4.58069 11.57C5.2461 10.7622 6.29017 9.63187 7.57014 8.69463L6.14141 7.2659C4.79325 8.29616 3.71929 9.47005 3.03692 10.2985C3.01333 10.3272 2.98875 10.3566 2.96345 10.3869L2.96343 10.3869C2.65001 10.7624 2.22656 11.2696 2.22656 12C2.22656 12.7304 2.65001 13.2376 2.96343 13.6131L2.96365 13.6133C2.98888 13.6435 3.0134 13.6729 3.03692 13.7015C3.77679 14.5998 4.977 15.9041 6.48794 16.9912C7.99098 18.0725 9.8869 19 11.9968 19C13.6669 19 15.2028 18.419 16.516 17.6405ZM8.80365 5.6855C9.78744 5.26871 10.8611 5 11.9968 5C14.1068 5 16.0027 5.92747 17.5057 7.00885C19.0167 8.0959 20.2169 9.40025 20.9568 10.2985C20.9803 10.3272 21.0049 10.3566 21.0302 10.3869L21.0302 10.3869C21.3437 10.7624 21.7671 11.2696 21.7671 12C21.7671 12.7304 21.3437 13.2376 21.0302 13.6131C21.0049 13.6434 20.9803 13.6728 20.9568 13.7015C20.4701 14.2923 19.7843 15.0589 18.9418 15.8237L17.5258 14.4077C18.3057 13.708 18.9507 12.9912 19.413 12.43C19.5128 12.3088 19.5873 12.2182 19.649 12.1385C19.6979 12.0754 19.729 12.0315 19.7493 12C19.729 11.9685 19.6979 11.9246 19.649 11.8615C19.5873 11.7818 19.5128 11.6912 19.413 11.57C18.7328 10.7442 17.6568 9.58138 16.3377 8.63233C15.0107 7.6776 13.5226 7 11.9968 7C11.4458 7 10.8997 7.08837 10.3644 7.24624L8.80365 5.6855Z" fill="#A6A6B0"/>
<path d="M5 2L21 18" stroke="#A6A6B0" stroke-width="2"/>
</svg>
