<svg width="33" height="32" viewBox="0 0 33 32" fill="none" xmlns="http://www.w3.org/2000/svg">
<circle cx="16.9961" cy="13.3333" r="4" stroke="white" stroke-width="2" stroke-linecap="round"/>
<path d="M28.9961 16C28.9961 22.6274 23.6235 28 16.9961 28C10.3687 28 4.99609 22.6274 4.99609 16C4.99609 9.37258 10.3687 4 16.9961 4C23.6235 4 28.9961 9.37258 28.9961 16Z" stroke="white" stroke-width="2"/>
<path d="M25.6369 25.2732C25.9415 25.0535 26.4622 24.8113 26.2978 24.4737V24.4737C25.6913 23.2282 24.5228 22.1312 22.9434 21.3318C21.237 20.4681 19.1463 20 16.9954 20C14.8446 20 12.7539 20.4681 11.0475 21.3318C9.46807 22.1312 8.29963 23.2282 7.69309 24.4737C7.63934 24.5841 7.65798 24.703 7.73008 24.7981C7.81849 24.9147 7.95688 24.9835 8.0662 25.0808C12.3661 28.9078 20.5077 28.972 25.6369 25.2732Z" fill="white"/>
</svg>
