<svg width="18" height="18" viewBox="0 0 18 18" fill="none" xmlns="http://www.w3.org/2000/svg">
<path fill-rule="evenodd" clip-rule="evenodd" d="M3 0C1.34315 0 0 1.34315 0 3V15C0 16.6569 1.34315 18 3 18H15C16.6569 18 18 16.6569 18 15V3C18 1.34315 16.6569 0 15 0H3ZM13.5272 7.53342C13.8218 7.24225 13.8246 6.76738 13.5334 6.47278C13.2422 6.17818 12.7674 6.1754 12.4728 6.46658L8.11808 10.7706C8.02058 10.867 7.86365 10.8669 7.76631 10.7703L5.52811 8.55079C5.23399 8.25912 4.75912 8.26111 4.46746 8.55523C4.17579 8.84934 4.17778 9.32421 4.47189 9.61588L6.71009 11.8354C7.3915 12.5112 8.48999 12.5121 9.17252 11.8375L13.5272 7.53342Z" fill="#1F4FE0"/>
</svg>
